<?xml version="1.0" encoding="utf-8"?>
<!-- Generator: Adobe Illustrator 25.4.1, SVG Export Plug-In . SVG Version: 6.00 Build 0)  -->
<svg version="1.1" id="Ebene_1" xmlns="http://www.w3.org/2000/svg" xmlns:xlink="http://www.w3.org/1999/xlink" x="0px" y="0px"
	 viewBox="0 0 136 136" style="enable-background:new 0 0 136 136;" xml:space="preserve">
<style type="text/css">
	.st0{fill:#FFFFFF;}
	.st1{fill:#2C4C62;}
</style>
<rect class="st0" width="136" height="136"/>
<path class="st1" d="M20.7,32.3h-8.2V12.8h7.9c3.8,0,6,2.1,6,5.5c0,2.2-1.4,3.6-2.4,4c1.2,0.5,2.7,1.8,2.7,4.4
	C26.7,30.4,24.2,32.3,20.7,32.3z M20.1,16.2h-3.7v4.5h3.7c1.6,0,2.5-0.9,2.5-2.3C22.6,17.1,21.7,16.2,20.1,16.2z M20.4,24.1h-4v4.8
	h4c1.7,0,2.6-1.1,2.6-2.4C22.9,25.2,22.1,24.1,20.4,24.1z"/>
<path class="st1" d="M30,32.3V12.8h3.8v16.1h8.9v3.4C42.7,32.3,30,32.3,30,32.3z"/>
<path class="st1" d="M58,32.3l-1.2-3.5h-6.9l-1.2,3.5h-4l7.1-19.5h3L62,32.3H58z M53.5,18.6L51,25.7h4.9L53.5,18.6z"/>
<path class="st1" d="M76.2,32.3l-7.7-12v12h-3.8V12.8h3.4l7.7,12v-12h3.8v19.5H76.2z"/>
<path class="st1" d="M91,32.5c-2.3,0-3.9-0.7-5.2-2.1c-1.9-2-2-4.1-2-7.9s0-5.9,2-7.9c1.3-1.3,3-2.1,5.2-2.1c3.6,0,6.5,2.1,7.2,6.2
	h-3.9C93.9,17.2,92.9,16,91,16c-1,0-1.9,0.4-2.4,1c-0.7,0.8-1,1.8-1,5.5s0.2,4.7,1,5.5c0.5,0.6,1.4,1,2.4,1c1.9,0,2.9-1.2,3.3-2.8
	h3.9C97.4,30.4,94.6,32.5,91,32.5z"/>
<path class="st1" d="M118.9,32.3l-1.4-1.7c-1,0.8-2.3,1.9-5.1,1.9c-4.3,0-6.5-2.3-6.5-5.9c0-2.5,1.8-4.1,3.5-5.2
	c-0.8-0.9-1.9-2.3-1.9-4.1c0-2.7,1.9-4.6,5.2-4.6c3.1,0,5,1.9,5,4.6c0,1.5-0.8,2.5-2,3.4l-1.4,1l3.3,3.9c0.6-0.9,0.9-2,1-3.4h3.4
	c-0.1,2.5-0.7,4.5-2.1,6.1l3.5,4.1C123.4,32.3,118.9,32.3,118.9,32.3z M111.4,23.5c-1.2,0.8-2,1.6-2,3c0,1.6,1.3,2.7,3,2.7
	c1.2,0,2-0.4,2.9-1.2L111.4,23.5z M112.8,15.7c-1.1,0-1.6,0.7-1.6,1.6c0,0.7,0.6,1.4,1.3,2.2l0.8-0.5c0.6-0.4,1.1-1,1.1-1.6
	C114.4,16.4,113.8,15.7,112.8,15.7z"/>
<path class="st1" d="M16.4,39.6v4.8h7.7v3.4h-7.7v7.9h-3.8V36.2h12.9v3.4C25.5,39.6,16.4,39.6,16.4,39.6z"/>
<path class="st1" d="M29.3,55.7V36.2h3.8v19.5H29.3z"/>
<path class="st1" d="M43.6,55.9c-3,0-5.2-0.6-7.1-2.6l2.5-2.5c1.2,1.2,2.9,1.6,4.7,1.6c2.3,0,3.5-0.9,3.5-2.4c0-0.7-0.2-1.2-0.6-1.6
	c-0.4-0.4-0.8-0.5-1.8-0.7l-2.3-0.4c-1.7-0.2-2.9-0.8-3.8-1.6c-0.9-0.9-1.4-2.2-1.4-3.8c0-3.5,2.6-5.9,6.8-5.9
	c2.7,0,4.6,0.7,6.3,2.3L48,40.7c-1.2-1.2-2.7-1.3-4-1.3c-2,0-3,1.1-3,2.5c0,0.5,0.1,1,0.5,1.4s1,0.6,1.8,0.7l2.3,0.4
	c1.8,0.2,2.9,0.7,3.7,1.5c1,1,1.5,2.4,1.5,4.1C50.8,53.7,47.7,55.9,43.6,55.9z"/>
<path class="st1" d="M61.3,55.9c-2.3,0-3.9-0.7-5.2-2.1c-2-1.9-2-4.1-2-7.9s0-5.9,2-7.9c1.3-1.3,3-2.1,5.2-2.1
	c3.7,0,6.5,2.1,7.2,6.2h-3.9c-0.4-1.6-1.4-2.8-3.3-2.8c-1,0-1.9,0.4-2.4,1c-0.7,0.8-1,1.8-1,5.5s0.2,4.7,1,5.5c0.5,0.6,1.4,1,2.4,1
	c1.9,0,2.9-1.2,3.3-2.8h3.9C67.8,53.8,64.9,55.9,61.3,55.9z"/>
<path class="st1" d="M82.6,55.7v-8.2H76v8.2h-3.8V36.2H76v8h6.6v-8h3.8v19.5H82.6z"/>
<path class="st1" d="M91.3,55.7V36.2h12.9v3.4h-9.1v4.6h7.7v3.4h-7.7v4.8h9.1v3.4L91.3,55.7L91.3,55.7z"/>
<path class="st1" d="M119,55.7l-3.8-7.8h-2.7v7.8h-3.8V36.2h7.7c4,0,6.3,2.7,6.3,6c0,2.7-1.7,4.4-3.6,5.1l4.4,8.4L119,55.7L119,55.7
	z M116,39.6h-3.6v5.2h3.6c1.7,0,2.8-1.1,2.8-2.6C118.8,40.6,117.7,39.6,116,39.6z"/>
<path class="st1" d="M12.7,107.9H19v1.3h-4.8v3.9h4.6v1.3h-4.6v5.8h-1.5C12.7,120.2,12.7,107.9,12.7,107.9z"/>
<path class="st1" d="M20.9,113.7c0-2.1,0.9-3,3.1-3c2.8,0,2.8,1.7,2.8,2.7v5.2c0,0.4,0,0.7,0.4,0.7c0.2,0,0.3,0,0.3-0.1v1
	c-0.1,0-0.5,0.1-0.8,0.1c-0.5,0-1.3,0-1.3-1.2l0,0c-0.5,0.8-1.3,1.3-2.2,1.3c-1.7,0-2.5-1-2.5-2.7c0-1.3,0.6-2.2,1.7-2.6l1.9-0.6
	c1.1-0.3,1.1-0.6,1.1-1.4c0-0.9-0.5-1.4-1.5-1.4c-1.6,0-1.6,1.5-1.6,1.8v0.1L20.9,113.7L20.9,113.7z M25.4,115.2
	c-0.6,0.6-1.8,0.7-2.5,1.1c-0.5,0.3-0.7,0.7-0.7,1.5c0,0.9,0.3,1.6,1.3,1.6s1.9-0.8,1.9-1.8L25.4,115.2L25.4,115.2z"/>
<path class="st1" d="M29.8,110.9h1.4v1.1l0,0c0.4-0.8,1.3-1.3,2.2-1.3c1.1,0,1.7,0.4,2,1.5c0.4-0.8,1.2-1.5,2.2-1.5
	c2.4,0,2.4,1.8,2.4,2.9v6.6h-1.4v-6.4c0-0.7-0.1-1.9-1.2-1.9c-0.7,0-1.7,0.4-1.7,1.9v6.4h-1.4v-6.4c0-0.7-0.1-1.9-1.2-1.9
	c-0.7,0-1.7,0.4-1.7,1.9v6.4H30L29.8,110.9L29.8,110.9L29.8,110.9z"/>
<path class="st1" d="M43.1,107.9h1.4v1.7h-1.4V107.9z M43.1,110.9h1.4v4.6v4.6h-1.4V110.9z"/>
<path class="st1" d="M47.4,107.9h1.4v6.3v6h-1.4V107.9z"/>
<path class="st1" d="M51.8,107.9h1.4v1.7h-1.4V107.9z M51.8,110.9h1.4v4.5v4.7h-1.4V110.9z"/>
<path class="st1" d="M57.3,115.7c0,1.4,0,3.6,1.8,3.6c1.4,0,1.6-1.4,1.6-2.1h1.4c0,1-0.6,3.3-3.1,3.3c-2.3,0-3.2-1.6-3.2-4.7
	c0-2.3,0.4-5,3.3-5c2.8,0,3.1,2.4,3.1,4.4v0.6C62.2,115.7,57.3,115.7,57.3,115.7z M60.7,114.6v-0.5c0-1-0.3-2.3-1.6-2.3
	c-1.5,0-1.7,1.9-1.7,2.4v0.3L60.7,114.6L60.7,114.6z"/>
<path class="st1" d="M64.6,110.9H66v1.1l0,0c0.4-0.8,1.3-1.3,2.2-1.3c2.4,0,2.4,1.8,2.4,2.9v6.6h-1.4v-6.4c0-0.7-0.1-1.9-1.4-1.9
	c-0.8,0-1.8,0.5-1.8,1.9v6.4h-1.4L64.6,110.9L64.6,110.9z"/>
<path class="st1" d="M73.5,107.9h1.4v4.1l0,0c0.4-0.8,1.4-1.3,2.2-1.3c2.4,0,2.4,1.8,2.4,2.9v6.6h-1.4v-6.4c0-0.7-0.1-1.9-1.4-1.9
	c-0.8,0-1.8,0.5-1.8,1.9v6.4h-1.4L73.5,107.9L73.5,107.9z"/>
<path class="st1" d="M85.2,110.7c2.7,0,3.3,2.3,3.3,4.9s-0.7,4.9-3.3,4.9c-2.7,0-3.3-2.3-3.3-4.9S82.5,110.7,85.2,110.7z M87,115.6
	c0-2-0.3-3.7-1.8-3.7s-1.8,1.7-1.8,3.7s0.3,3.7,1.8,3.7C86.7,119.3,87,117.6,87,115.6z"/>
<path class="st1" d="M101.3,120.2H100V119l0,0c-0.2,0.7-1,1.4-2,1.4c-2.2,0-3-2-3-4.9c0-1.9,0.3-4.9,2.9-4.9c0.8,0,1.7,0.5,2,1.3
	l0,0v-4.1h1.4V120.2L101.3,120.2z M98.1,119.2c1.6,0,1.9-1.5,1.9-3.6c0-1.8-0.3-3.6-1.9-3.6c-1.3,0-1.7,1.4-1.7,3.6
	C96.4,117.8,96.8,119.2,98.1,119.2z"/>
<path class="st1" d="M104.2,107.9h1.4v1.7h-1.4V107.9z M104.2,110.9h1.4v9.2h-1.4v-4.7V110.9z"/>
<path class="st1" d="M108.5,110.9h1.4v1.1l0,0c0.4-0.8,1.3-1.3,2.2-1.3c2.4,0,2.4,1.8,2.4,2.9v6.6h-1.4v-6.4c0-0.7-0.1-1.9-1.4-1.9
	c-0.8,0-1.8,0.5-1.8,1.9v6.4h-1.4L108.5,110.9L108.5,110.9L108.5,110.9z"/>
<path class="st1" d="M123.4,119.6c0,2.8-1.3,3.8-3.1,3.8c-0.6,0-2.8,0-3-2.3h1.4c0.1,0.8,0.7,1.2,1.5,1.2c1.9,0,1.8-1.4,1.8-2.1V119
	l0,0c-0.3,0.8-1.2,1.2-2.1,1.2c-2.7,0-2.9-3.4-2.9-4.6c0-2.5,0.7-4.9,3-4.9c1,0,1.8,0.7,2,1.4l0,0v-1.2h1.4L123.4,119.6L123.4,119.6
	z M118.5,115.6c0,1.5,0.2,3.4,1.7,3.4c1.6,0,1.9-1.5,1.9-3.4c0-1.8-0.3-3.6-1.9-3.6C118.9,111.9,118.5,113.4,118.5,115.6z"/>
<polygon class="st1" points="90.9,107.9 92.4,107.9 92.4,114 92.4,120.2 90.9,120.2 "/>
</svg>
