<?xml version="1.0" encoding="utf-8"?>
<!-- Generator: Adobe Illustrator 25.4.1, SVG Export Plug-In . SVG Version: 6.00 Build 0)  -->
<svg version="1.1" id="Ebene_1" xmlns="http://www.w3.org/2000/svg" xmlns:xlink="http://www.w3.org/1999/xlink" x="0px" y="0px"
	 viewBox="0 0 672 182" style="enable-background:new 0 0 672 182;" xml:space="preserve">
<style type="text/css">
	.st0{fill:#2C4C62;}
	.st1{fill:none;stroke:#FFFFFF;stroke-width:4;stroke-miterlimit:10;}
</style>
<g id="Ebene_2_00000120534708163988574210000013388513332168946078_">
	<g id="Ebene_1-2">
		<rect y="0" class="st0" width="672" height="182"/>
		<g>
			<path class="st1" d="M172.5,33.2l-40.2,109.6h-26.7L65.4,33.2H89l30.1,87.1l30-87.1L172.5,33.2z"/>
			<path class="st1" d="M187.2,41.8c-2.5-2.4-3.9-5.7-3.9-9.2c-0.1-3.5,1.3-6.8,3.9-9.2c5.5-4.9,13.8-4.9,19.3,0
				c2.5,2.4,3.9,5.7,3.9,9.2c0.1,3.5-1.3,6.8-3.9,9.2C201,46.7,192.7,46.7,187.2,41.8z M207.7,55.8v87h-22v-87H207.7z"/>
			<path class="st1" d="M309.5,105.9H246c0.5,6.3,2.7,11.2,6.6,14.8c3.9,3.6,9,5.5,14.2,5.3c8.2,0,14-3.5,17.4-10.5H308
				c-2.4,8.3-7.5,15.5-14.4,20.6c-7.1,5.4-15.9,8.1-26.2,8.1c-7.9,0.1-15.6-1.8-22.5-5.6c-6.6-3.7-12-9.1-15.5-15.8
				c-3.8-7.2-5.7-15.4-5.6-23.6c0-9,1.8-16.9,5.5-23.7c3.5-6.6,8.8-12.1,15.4-15.7c14.1-7.3,30.8-7.3,45-0.2
				c6.4,3.5,11.7,8.7,15.2,15.1c3.7,6.9,5.6,14.7,5.4,22.5C310.2,100.3,310,103.1,309.5,105.9z M287.4,91.1
				c0.1-5.2-2.2-10.2-6.1-13.6c-4.1-3.4-9.3-5.3-14.6-5.1c-5-0.1-10,1.7-13.7,5c-3.7,3.3-6,7.9-6.8,13.7L287.4,91.1z"/>
			<path class="st1" d="M348.2,26.6v116.2h-22V26.6H348.2z"/>
			<path class="st1" d="M409.7,73.9h-15.2v68.9h-22.3V73.9h-9.9V55.8h9.9v-4.4c0-10.7,3-18.5,9.1-23.5c6.1-5,15.2-7.4,27.5-7.1v18.5
				c-5.3-0.1-9,0.8-11.1,2.7c-2.1,1.9-3.1,5.3-3.1,10.2v3.6h15.2V73.9z"/>
			<path class="st1" d="M423.6,75.6c3.2-6.5,8.2-11.9,14.3-15.7c6.1-3.7,13.1-5.6,20.2-5.5c5.9-0.1,11.7,1.2,17,3.9
				c4.6,2.4,8.6,5.8,11.7,9.9V55.8h22.1v87h-22.1v-12.7c-3,4.3-7,7.7-11.7,10.1c-5.3,2.7-11.2,4.1-17.2,4c-7.1,0.1-14-1.9-20-5.6
				c-6.1-3.9-11.1-9.4-14.3-15.9c-3.6-7.3-5.4-15.4-5.3-23.6C418.2,90.9,420,82.9,423.6,75.6z M483.6,85.6c-1.9-3.7-4.9-6.7-8.5-8.8
				c-3.5-2-7.4-3.1-11.5-3.1c-8.2-0.1-15.8,4.4-19.7,11.7c-2.2,4.2-3.3,8.9-3.2,13.6c-0.1,4.8,1,9.5,3.2,13.7c2,3.7,4.9,6.8,8.5,9
				c3.4,2.1,7.3,3.1,11.2,3.1c4,0,8-1,11.5-3.1c3.6-2.1,6.5-5.1,8.5-8.8c2.2-4.2,3.3-9,3.1-13.7C486.9,94.5,485.8,89.8,483.6,85.6
				L483.6,85.6z"/>
			<path class="st1" d="M552.4,26.6v116.2h-22V26.6H552.4z"/>
			<path class="st1" d="M599.7,73.9v42.1c0,2.9,0.7,5,2.1,6.4s3.8,2,7.2,2h10.2v18.5h-13.8c-18.5,0-27.8-9-27.8-27v-42h-10.4V55.8
				h10.4V34.3h22.1v21.5h19.5v18.1H599.7z"/>
		</g>
	</g>
</g>
</svg>
