<?xml version="1.0" encoding="utf-8"?>
<!-- Generator: Adobe Illustrator 25.4.1, SVG Export Plug-In . SVG Version: 6.00 Build 0)  -->
<svg version="1.1" id="Ebene_1" xmlns="http://www.w3.org/2000/svg" xmlns:xlink="http://www.w3.org/1999/xlink" x="0px" y="0px"
	 viewBox="0 0 915 182" style="enable-background:new 0 0 915 182;" xml:space="preserve">
<style type="text/css">
	.st0{fill:#2C4C62;}
	.st1{fill:none;stroke:#FFFFFF;stroke-width:4;stroke-miterlimit:10;}
</style>
<g id="Ebene_2_00000091705123142874146210000010219728171767047567_">
	<g id="Ebene_1-2">
		<rect y="0" class="st0" width="915" height="182"/>
		<g>
			<path class="st1" d="M66.5,49.8c-2.5-2.4-3.9-5.7-3.8-9.2c-0.1-3.5,1.3-6.8,3.8-9.2c2.6-2.5,6.1-3.8,9.7-3.7
				c3.6-0.1,7.1,1.2,9.7,3.7c2.5,2.4,3.9,5.7,3.8,9.2c0.1,3.5-1.3,6.8-3.8,9.2c-2.6,2.5-6.1,3.8-9.7,3.7
				C72.6,53.6,69.1,52.2,66.5,49.8z M87,63.8v87H65v-87L87,63.8z"/>
			<path class="st1" d="M182,72.4c6.4,6.5,9.6,15.7,9.6,27.4v51h-22v-48c0-6.9-1.7-12.2-5.2-15.9s-8.2-5.6-14.1-5.6
				c-6.1,0-10.9,1.9-14.4,5.6c-3.5,3.7-5.3,9-5.3,15.9v48h-22v-87h22v10.9c3-3.8,6.8-6.9,11.2-8.9c4.7-2.2,9.8-3.3,15-3.2
				C167.2,62.6,175.6,65.8,182,72.4z"/>
			<path class="st1" d="M212.1,83.6c6.5-13.2,20-21.4,34.6-21.2c5.6,0,11.1,1.3,16.2,3.7c4.8,2.2,9,5.6,12.2,9.8V34.6h22.3v116.2
				h-22.3v-12.9c-2.8,4.4-6.8,8-11.5,10.4c-5.3,2.7-11.2,4-17.1,3.9c-7.1,0.1-14.1-1.9-20.1-5.6c-6.2-3.9-11.1-9.4-14.4-15.9
				c-3.6-7.3-5.4-15.4-5.3-23.6C206.7,98.9,208.5,90.9,212.1,83.6z M272.1,93.6c-2-3.7-4.9-6.7-8.5-8.8c-3.5-2-7.4-3.1-11.5-3.1
				c-8.2-0.1-15.8,4.4-19.7,11.7c-2.2,4.2-3.3,8.8-3.2,13.6c-0.1,4.8,1,9.5,3.2,13.7c2,3.7,4.9,6.8,8.5,9c3.4,2.1,7.3,3.1,11.2,3.1
				c4,0,8-1,11.5-3.1c3.6-2.1,6.5-5.1,8.5-8.8c2.2-4.2,3.3-9,3.1-13.7C275.4,102.5,274.3,97.8,272.1,93.6L272.1,93.6z"/>
			<path class="st1" d="M320.4,49.8c-2.5-2.4-3.9-5.7-3.8-9.2c-0.1-3.5,1.3-6.8,3.8-9.2c5.5-4.9,13.8-4.9,19.3,0
				c2.5,2.4,3.9,5.7,3.9,9.2c0.1,3.5-1.3,6.8-3.9,9.2C334.2,54.7,325.9,54.7,320.4,49.8z M340.9,63.8v87h-22v-87H340.9z"/>
			<path class="st1" d="M398.8,130.5l22-66.7h23.4l-32.2,87h-26.7l-32-87h23.5L398.8,130.5z"/>
			<path class="st1" d="M458.1,49.8c-2.5-2.4-3.9-5.7-3.9-9.2c-0.1-3.5,1.3-6.8,3.9-9.2c5.5-4.9,13.8-4.9,19.3,0
				c2.5,2.4,3.9,5.7,3.9,9.2c0.1,3.5-1.3,6.8-3.9,9.2C471.9,54.7,463.6,54.7,458.1,49.8z M478.6,63.8v87h-22v-87H478.6z"/>
			<path class="st1" d="M499.9,83.6c6.5-13.2,20-21.4,34.6-21.2c5.6,0,11.1,1.3,16.2,3.7c4.8,2.2,9,5.6,12.2,9.8V34.6h22.3v116.2
				h-22.3v-12.9c-2.8,4.4-6.8,8-11.5,10.4c-5.3,2.7-11.2,4-17.1,3.9c-7.1,0.1-14.1-1.9-20.1-5.6c-6.2-3.9-11.1-9.4-14.4-15.9
				c-3.6-7.3-5.4-15.4-5.3-23.6C494.4,98.9,496.2,90.9,499.9,83.6z M559.9,93.6c-2-3.7-4.9-6.7-8.5-8.8c-3.5-2-7.4-3.1-11.4-3.1
				c-8.2-0.1-15.8,4.4-19.7,11.7c-2.3,4.2-3.4,8.9-3.3,13.6c-0.1,4.8,1,9.5,3.2,13.7c2,3.7,4.9,6.8,8.5,9c3.4,2.1,7.3,3.2,11.3,3.2
				c4,0,8-1,11.5-3.1c3.6-2.1,6.5-5.1,8.5-8.8c2.2-4.2,3.2-9,3.1-13.7C563.1,102.5,562.1,97.8,559.9,93.6L559.9,93.6z"/>
			<path class="st1" d="M688.8,63.8v87h-22.1v-11c-2.9,3.8-6.7,6.9-11.1,8.9c-4.6,2.2-9.7,3.3-14.8,3.2c-6.3,0.1-12.5-1.4-18.1-4.3
				c-5.3-2.9-9.6-7.4-12.3-12.7c-3-5.6-4.5-12.3-4.5-20v-51h22v47.8c0,6.9,1.7,12.2,5.2,15.9c3.5,3.7,8.2,5.6,14.1,5.6
				c6.1,0,10.8-1.9,14.3-5.6c3.5-3.7,5.2-9,5.2-15.9V63.8H688.8z"/>
			<path class="st1" d="M790.7,113.9h-63.6c0.5,6.3,2.7,11.2,6.6,14.7c3.9,3.6,9,5.5,14.3,5.4c8.2,0,14-3.5,17.4-10.5h23.7
				c-2.4,8.3-7.5,15.5-14.4,20.6c-7.1,5.4-15.9,8.1-26.2,8.1c-7.9,0.1-15.6-1.8-22.5-5.6c-6.6-3.7-12-9.1-15.5-15.8
				c-3.8-7.2-5.7-15.4-5.6-23.6c0-9,1.8-16.9,5.5-23.7c3.5-6.6,8.8-12.1,15.4-15.7c14.1-7.3,30.8-7.3,45-0.2
				c6.4,3.5,11.7,8.7,15.2,15.2c3.7,6.9,5.6,14.7,5.4,22.5C791.4,108.3,791.1,111.1,790.7,113.9z M768.6,99.1
				c0.1-5.2-2.2-10.2-6.1-13.6c-4.1-3.4-9.3-5.3-14.6-5.1c-5-0.1-10,1.7-13.7,5c-3.7,3.3-6,7.9-6.8,13.7L768.6,99.1z"/>
			<path class="st1" d="M829.3,34.6v116.2h-22V34.6H829.3z"/>
			<path class="st1" d="M873,34.6v116.2h-22V34.6H873z"/>
		</g>
	</g>
</g>
</svg>
