<svg xmlns="http://www.w3.org/2000/svg" viewBox="0 0 812 281"><defs><style>.cls-1{fill:#2d4d63;}.cls-2{isolation:isolate;}.cls-3{fill:none;stroke:#fff;stroke-miterlimit:10;stroke-width:3px;}.cls-4{fill:#a0c15c;}.cls-5{fill:#d4712c;}.cls-6{fill:#b4a8d3;}.cls-7{fill:#7e8f3f;}.cls-8{fill:#80b9e6;}</style></defs><g id="Ebene_2" data-name="Ebene 2"><g id="Ebene_1-2" data-name="Ebene 1"><rect class="cls-1" x="198" y="139" width="614" height="142"/><rect class="cls-1" width="812" height="177"/><g class="cls-2"><path class="cls-3" d="M265.9,189.6a9.06,9.06,0,0,1,0-13.1,10.07,10.07,0,0,1,7.3-2.6,10.43,10.43,0,0,1,7.2,2.6,8.7,8.7,0,0,1,2.8,6.6,8.34,8.34,0,0,1-2.8,6.5,11.41,11.41,0,0,1-14.5,0Zm15.8,8.4v55.6h-17V198Z"/><path class="cls-3" d="M343.5,203.8c3.9,4.2,5.8,10,5.8,17.4v32.5H332.4V223.5c0-3.7-1-6.6-2.9-8.7a10,10,0,0,0-7.8-3.1,10.1,10.1,0,0,0-7.8,3.1c-1.9,2.1-2.9,4.9-2.9,8.7v30.2H294V198h17v7.4a17.38,17.38,0,0,1,7-5.8,22.49,22.49,0,0,1,9.9-2.1Q337.65,197.35,343.5,203.8Z"/><path class="cls-3" d="M361,210.7a25.27,25.27,0,0,1,8.8-10,23.31,23.31,0,0,1,12.5-3.5,22,22,0,0,1,10,2.3,17.9,17.9,0,0,1,7.1,6.2V179.9h17v73.7h-17v-8a17.49,17.49,0,0,1-6.8,6.4,21.46,21.46,0,0,1-10.3,2.4,23.56,23.56,0,0,1-12.5-3.5,24.19,24.19,0,0,1-8.8-10.1,32.91,32.91,0,0,1-3.2-15.1A33.8,33.8,0,0,1,361,210.7Zm34.9,5.1a11.36,11.36,0,0,0-8.6-3.7,11.47,11.47,0,0,0-8.6,3.6c-2.4,2.4-3.5,5.8-3.5,10s1.2,7.6,3.5,10.1a11.36,11.36,0,0,0,8.6,3.7,11.21,11.21,0,0,0,8.6-3.7c2.4-2.5,3.5-5.8,3.5-10.1C399.5,221.6,398.3,218.2,395.9,215.8Z"/><path class="cls-3" d="M430.1,189.6a9.06,9.06,0,0,1,0-13.1,10.07,10.07,0,0,1,7.3-2.6,10.43,10.43,0,0,1,7.2,2.6,8.7,8.7,0,0,1,2.8,6.6,8.34,8.34,0,0,1-2.8,6.5,11.41,11.41,0,0,1-14.5,0Zm15.8,8.4v55.6h-17V198Z"/><path class="cls-3" d="M483.2,237.7,495.3,198h18.1l-19.7,55.6h-21L453,198h18.2Z"/><path class="cls-3" d="M521.8,189.6a9.06,9.06,0,0,1,0-13.1,10.07,10.07,0,0,1,7.3-2.6,10.43,10.43,0,0,1,7.2,2.6,8.7,8.7,0,0,1,2.8,6.6,8.34,8.34,0,0,1-2.8,6.5,10,10,0,0,1-7.2,2.6A10.23,10.23,0,0,1,521.8,189.6Zm15.8,8.4v55.6h-17V198Z"/><path class="cls-3" d="M549.8,210.7a25.27,25.27,0,0,1,8.8-10,23.31,23.31,0,0,1,12.5-3.5,22,22,0,0,1,10,2.3,17.9,17.9,0,0,1,7.1,6.2V179.9h17v73.7h-17v-8a17.49,17.49,0,0,1-6.8,6.4,21.46,21.46,0,0,1-10.3,2.4,23.56,23.56,0,0,1-12.5-3.5,24.19,24.19,0,0,1-8.8-10.1,32.91,32.91,0,0,1-3.2-15.1A33.8,33.8,0,0,1,549.8,210.7Zm34.9,5.1a11.36,11.36,0,0,0-8.6-3.7,11.47,11.47,0,0,0-8.6,3.6c-2.4,2.4-3.5,5.8-3.5,10s1.2,7.6,3.5,10.1a11.36,11.36,0,0,0,8.6,3.7,11.21,11.21,0,0,0,8.6-3.7c2.4-2.5,3.5-5.8,3.5-10.1C588.3,221.6,587.1,218.2,584.7,215.8Z"/><path class="cls-3" d="M672.5,198v55.6h-17V246a18.44,18.44,0,0,1-7,5.9,21.37,21.37,0,0,1-9.8,2.2,22,22,0,0,1-11.3-2.8,18.89,18.89,0,0,1-7.6-8.2,28,28,0,0,1-2.7-12.7V198H634v30.2c0,3.7,1,6.6,2.9,8.7a10,10,0,0,0,7.8,3.1,10.32,10.32,0,0,0,7.9-3.1c1.9-2.1,2.9-4.9,2.9-8.7V198Z"/><path class="cls-3" d="M736.9,229.9H698.3c.3,3.5,1.4,6.1,3.3,7.9a10.39,10.39,0,0,0,7.2,2.7c4.2,0,7.2-1.8,8.9-5.4h18.1a25.09,25.09,0,0,1-5,9.9,26.17,26.17,0,0,1-9.1,6.9,28.78,28.78,0,0,1-12.3,2.5,29.91,29.91,0,0,1-14.5-3.5,24.1,24.1,0,0,1-10-10,30.66,30.66,0,0,1-3.6-15.1,31.75,31.75,0,0,1,3.5-15.1,25.72,25.72,0,0,1,9.9-10,30,30,0,0,1,14.6-3.5,28.81,28.81,0,0,1,14.3,3.4,24.09,24.09,0,0,1,9.8,9.7,29,29,0,0,1,3.5,14.6A16.76,16.76,0,0,1,736.9,229.9Zm-17.1-9.5a8.93,8.93,0,0,0-3-7,11.21,11.21,0,0,0-7.5-2.6,10.36,10.36,0,0,0-7.2,2.5,10.62,10.62,0,0,0-3.6,7.1Z"/><path class="cls-3" d="M763.2,179.9v73.7h-17V179.9Z"/><path class="cls-3" d="M792.6,179.9v73.7h-17V179.9Z"/></g><g class="cls-2"><path class="cls-4" d="M145,29.2,104.5,139.5H77.7L37.2,29.2H60.9l30.3,87.7,30.2-87.7Z"/></g><g class="cls-2"><path class="cls-5" d="M159.8,37.8a12.32,12.32,0,0,1-3.9-9.2,12,12,0,0,1,3.9-9.2,14.56,14.56,0,0,1,19.4,0,12.32,12.32,0,0,1,3.9,9.2,12,12,0,0,1-3.9,9.2,14.56,14.56,0,0,1-19.4,0Zm20.6,14.1v87.6H158.3V51.9Z"/><path class="cls-5" d="M283,102.4H219c.5,6.3,2.7,11.3,6.6,14.9a20.44,20.44,0,0,0,14.4,5.4c8.2,0,14.1-3.5,17.5-10.6h23.9a40.07,40.07,0,0,1-14.5,20.8q-10.8,8.1-26.4,8.1a46.28,46.28,0,0,1-22.7-5.6,38.56,38.56,0,0,1-15.6-15.9,48.83,48.83,0,0,1-5.6-23.7c0-9.1,1.8-17,5.5-23.9a39.3,39.3,0,0,1,15.5-15.8c6.6-3.7,14.3-5.5,22.9-5.5A46.1,46.1,0,0,1,262.9,56a37.58,37.58,0,0,1,15.3,15.3A46.5,46.5,0,0,1,283.7,94,71.28,71.28,0,0,1,283,102.4ZM260.7,87.5a17.73,17.73,0,0,0-6.2-13.7,21.92,21.92,0,0,0-14.7-5.1,20,20,0,0,0-13.8,5q-5.55,5-6.9,13.8Z"/><path class="cls-5" d="M321.8,22.5V139.4H299.7V22.5Z"/></g><g class="cls-2"><path class="cls-6" d="M383.8,70.1H368.5v69.4H346V70.1H336V51.9h10V47.5c0-10.7,3.1-18.6,9.2-23.7s15.3-7.4,27.7-7.1V35.3c-5.4-.1-9.1.8-11.2,2.7s-3.2,5.3-3.2,10.3v3.6h15.3Z"/><path class="cls-6" d="M397.8,71.8A38.73,38.73,0,0,1,412.2,56a38.18,38.18,0,0,1,20.3-5.5,35.23,35.23,0,0,1,28.9,14V51.9h22.3v87.6H461.4V126.7a32.89,32.89,0,0,1-11.8,10.2,35.92,35.92,0,0,1-17.3,4,37.37,37.37,0,0,1-20.2-5.7,39.29,39.29,0,0,1-14.4-16,51.82,51.82,0,0,1-5.3-23.8C392.5,86.5,394.2,78.7,397.8,71.8Zm60.4,10.1a23.49,23.49,0,0,0-8.5-8.9,22.32,22.32,0,0,0-11.5-3.1,22.3,22.3,0,0,0-19.9,11.8c-2.2,3.8-3.2,8.4-3.2,13.7a28.7,28.7,0,0,0,3.2,13.8,23.4,23.4,0,0,0,8.5,9.1,21.72,21.72,0,0,0,11.3,3.2,22.06,22.06,0,0,0,11.5-3.1,22.5,22.5,0,0,0,8.5-8.8,28.43,28.43,0,0,0,3.2-13.8A27.23,27.23,0,0,0,458.2,81.9ZM419,38.5a10.11,10.11,0,0,1-3-7.4,10.34,10.34,0,0,1,3-7.5,9.82,9.82,0,0,1,7.4-3.1,10,10,0,0,1,7.5,3.1,10.19,10.19,0,0,1,3.1,7.5,9.67,9.67,0,0,1-3.1,7.4,10.5,10.5,0,0,1-7.5,3A10.11,10.11,0,0,1,419,38.5Zm29.3,0a10.11,10.11,0,0,1-3-7.4,10.34,10.34,0,0,1,3-7.5,9.82,9.82,0,0,1,7.4-3.1,10,10,0,0,1,7.5,3.1,10.19,10.19,0,0,1,3.1,7.5,9.67,9.67,0,0,1-3.1,7.4,10.5,10.5,0,0,1-7.5,3A10.11,10.11,0,0,1,448.3,38.5Z"/></g><g class="cls-2"><path class="cls-7" d="M527.5,22.5V139.4H505.4V22.5Z"/><path class="cls-7" d="M575,70.1v42.4c0,3,.7,5.1,2.1,6.4s3.8,2,7.2,2h10.3v18.6H580.7c-18.6,0-28-9.1-28-27.2V70.1H542.3V51.9h10.4V30.3H575V52h19.6V70.2H575Z"/></g><g class="cls-2"><path class="cls-8" d="M612.1,37.8a12.32,12.32,0,0,1-3.9-9.2,12,12,0,0,1,3.9-9.2,14.56,14.56,0,0,1,19.4,0,12.32,12.32,0,0,1,3.9,9.2,12,12,0,0,1-3.9,9.2,14.56,14.56,0,0,1-19.4,0Zm20.6,14.1v87.6H610.6V51.9Z"/><path class="cls-8" d="M706,54.4a32,32,0,0,1,11.7,10V51.9H740v88.2a46.25,46.25,0,0,1-4.9,21.7A37,37,0,0,1,720.4,177c-6.5,3.7-14.4,5.6-23.7,5.6q-18.6,0-30.6-8.7a31.91,31.91,0,0,1-13.5-23.7h22a16.87,16.87,0,0,0,7.5,9.6,25.79,25.79,0,0,0,14,3.6c6.4,0,11.6-1.9,15.6-5.8s6-9.7,6-17.5V126.5a34.11,34.11,0,0,1-11.8,10.3,35.44,35.44,0,0,1-17.1,4.1,37.37,37.37,0,0,1-20.2-5.7,40.22,40.22,0,0,1-14.5-16,51.82,51.82,0,0,1-5.3-23.8,50.56,50.56,0,0,1,5.3-23.5,38.73,38.73,0,0,1,14.4-15.8,38.18,38.18,0,0,1,20.3-5.5A35.19,35.19,0,0,1,706,54.4Zm8.6,27.5a23.49,23.49,0,0,0-8.5-8.9,22.32,22.32,0,0,0-11.5-3.1,22.3,22.3,0,0,0-19.9,11.8c-2.2,3.8-3.2,8.4-3.2,13.7a28.7,28.7,0,0,0,3.2,13.8,23.4,23.4,0,0,0,8.5,9.1,21.72,21.72,0,0,0,11.3,3.2,22.06,22.06,0,0,0,11.5-3.1,22.5,22.5,0,0,0,8.5-8.8,28.43,28.43,0,0,0,3.2-13.8C717.7,90.3,716.7,85.7,714.6,81.9Z"/></g></g></g></svg>